:SAMPLES-PER-SECOND 30
:FRAME-RANGE 1-3535
:FULLY-SPECIFIED
:DEGREES
995
root  54.1242 37.8586 25.5204 -178.107 -7.78427 -179.266
RightUpLeg  -18.0774 8.79183 -13.0389
RightLeg  68.3095 -0.900791 -3.23634
RightFoot  2.53924 -1.62668 13.4501
RightToes  5.38503e-012 1.26228e-014 -6.01869e-014
Spine  -0.962257 1.58168 1.16361
Spine1  8.47691 0.609807 0.7559
HEad  -0.330053 54.2436 -12.853
LeftShoulder1  0.980852 -0.232492 -21.6074
LeftArm  11.5825 7.25406 -55.5293
LeftForeArm  31.534 -7.13643 -13.1955
LeftHand  -0.078877 3.97986 5.07169
RightShoulder  1.77037 2.29477 25.565
RightArm  -9.64702 8.62323 54.5819
RightForeArm  58.8006 3.98666 11.3341
RightHand  0.249048 -6.82117 -20.9777
LeftUpLeg  -18.0909 -1.39848 -14.8993
LeftLeg  20.4442 21.0114 7.65753
LeftFoot  -8.64189 -0.262596 13.2964
LeftToes  8.9788e-011 3.29689e-010 2.1201e-011
996
root  53.8606 38.0222 24.5235 -178.482 -12.3041 -178.543
RightUpLeg  -19.3107 11.9912 -12.5637
RightLeg  64.3301 -3.43564 -8.35196
RightFoot  0.216832 -1.09509 10.8049
RightToes  5.38503e-012 1.26228e-014 -6.01869e-014
Spine  -1.38469 1.12194 0.986496
Spine1  8.30382 -0.146598 1.95639
HEad  0.89517 51.7468 -11.7359
LeftShoulder1  1.12171 -0.735207 -21.6495
LeftArm  13.0232 7.00496 -56.229
LeftForeArm  31.9113 -7.22177 -13.3377
LeftHand  -0.0800265 4.15645 5.23051
RightShoulder  1.67923 1.9575 25.8616
RightArm  -5.05571 8.43768 54.3559
RightForeArm  56.9787 6.23227 11.8405
RightHand  0.273843 -6.95276 -21.0443
LeftUpLeg  -14.8599 -3.52425 -14.8407
LeftLeg  19.1516 19.24 6.93241
LeftFoot  -9.52542 -0.161476 13.7487
LeftToes  8.9788e-011 3.29689e-010 2.1201e-011
997
root  53.5927 38.1326 23.5312 -178.547 -17.2532 -177.753
RightUpLeg  -20.7951 15.4452 -11.9807
RightLeg  59.7642 -6.25469 -11.9127
RightFoot  -2.28408 -0.498797 6.09428
RightToes  5.38503e-012 1.26228e-014 -6.01869e-014
Spine  -2.09753 0.460821 0.452193
Spine1  8.06594 -1.1045 3.23691
HEad  1.7527 48.9712 -10.6371
LeftShoulder1  1.23945 -1.19818 -21.3972
LeftArm  12.491 6.6337 -56.9402
LeftForeArm  33.6634 -6.57057 -13.5214
LeftHand  -0.0797641 4.2903 5.28578
RightShoulder  1.569 1.52929 26.4162
RightArm  0.0121621 8.91977 54.0106
RightForeArm  54.8996 7.67608 12.1731
RightHand  0.280503 -6.97653 -21.1972
LeftUpLeg  -12.2656 -4.51748 -14.7267
LeftLeg  18.33 15.8601 6.05936
LeftFoot  -10.6547 -0.0211946 14.2016
LeftToes  8.9788e-011 3.29689e-010 2.1201e-011
998
root  53.2719 38.1892 22.5431 -178.555 -22.6148 -176.964
RightUpLeg  -22.2267 18.4932 -11.6944
RightLeg  54.2528 -7.72221 -11.7315
RightFoot  -5.31855 -0.295286 4.92083
RightToes  5.38503e-012 1.26228e-014 -6.01869e-014
Spine  -3.16293 -0.471647 -0.154793
Spine1  8.22055 -2.29354 4.3455
HEad  1.96441 45.9822 -9.75386
LeftShoulder1  1.4127 -1.94627 -20.7382
LeftArm  12.3441 6.34665 -57.6144
LeftForeArm  34.1379 -6.24036 -13.6404
LeftHand  -0.0743753 4.22523 5.40473
RightShoulder  1.46719 1.15205 26.8823
RightArm  7.44239 9.93034 53.9146
RightForeArm  51.4389 9.28868 12.4234
RightHand  0.325833 -7.23751 -21.0626
LeftUpLeg  -9.97223 -5.08008 -14.4576
LeftLeg  17.9682 11.5351 5.09161
LeftFoot  -11.9933 0.154843 14.3984
LeftToes  8.9788e-011 3.29689e-010 2.1201e-011
999
root  52.889 38.2208 21.5958 -178.817 -28.182 -175.991
RightUpLeg  -23.8138 20.6073 -11.3055
RightLeg  48.3534 -7.29947 -9.02629
RightFoot  -7.94686 -0.197925 4.8526
RightToes  5.38503e-012 1.26228e-014 -6.01869e-014
Spine  -3.94352 -1.58001 -0.47495
Spine1  8.4279 -3.61133 5.27942
HEad  1.26385 43.0053 -9.52272
LeftShoulder1  1.58446 -2.71322 -20.1275
LeftArm  14.8311 5.67483 -57.7405
LeftForeArm  32.8877 -7.02232 -13.6316
LeftHand  -0.0719922 4.21592 5.32146
RightShoulder  1.34919 0.757869 27.1632
RightArm  18.8855 11.4428 54.1662
RightForeArm  45.5667 12.1045 11.918
RightHand  0.417189 -7.80788 -20.5248
LeftUpLeg  -7.702 -5.49156 -13.8727
LeftLeg  17.8209 6.93787 4.12624
LeftFoot  -13.3886 0.346171 14.759
LeftToes  8.9788e-011 3.29689e-010 2.1201e-011
1000
root  52.4266 38.1936 20.6614 -179.06 -32.4666 -175.271
RightUpLeg  -26.2699 21.5317 -10.9495
RightLeg  42.9717 -5.97421 -6.21294
RightFoot  -9.37682 -0.157436 5.46058
RightToes  5.38503e-012 1.26228e-014 -6.01869e-014
Spine  -4.56446 -2.28251 -0.787523
Spine1  8.58331 -4.40444 5.97686
HEad  0.723372 40.2845 -9.18547
LeftShoulder1  1.80175 -3.69051 -19.5176
LeftArm  18.3946 5.41631 -57.5806
LeftForeArm  30.589 -8.95943 -13.119
LeftHand  -0.0639428 4.44314 5.50066
RightShoulder  1.25431 0.443795 27.4059
RightArm  32.7605 13.35 54.4888
RightForeArm  37.8742 15.4562 10.3478
RightHand  0.489654 -8.33269 -19.7837
LeftUpLeg  -5.66256 -5.47971 -13.3183
LeftLeg  17.9174 3.26457 3.29746
LeftFoot  -14.8036 0.551904 15.2046
LeftToes  8.9788e-011 3.29689e-010 2.1201e-011
1001
root  51.8837 38.0997 19.7526 -179.233 -35.2135 -174.985
RightUpLeg  -29.1337 20.3868 -10.2349
RightLeg  37.9815 -4.26765 -3.82452
RightFoot  -9.87445 -0.150466 6.50168
RightToes  5.38503e-012 1.26228e-014 -6.01869e-014
Spine  -4.71468 -2.62855 -0.978339
Spine1  8.40003 -4.67307 6.36156
HEad  0.264368 38.4374 -9.09507
LeftShoulder1  1.93343 -4.40689 -18.782
LeftArm  23.9911 5.41671 -57.0868
LeftForeArm  26.177 -11.8851 -11.9649
LeftHand  -0.0873978 3.84675 5.33982
RightShoulder  1.2264 0.391688 27.1069
RightArm  47.2191 15.0771 55.397
RightForeArm  30.0323 19.1174 7.44726
RightHand  0.479889 -8.41326 -18.9526
LeftUpLeg  -3.61099 -5.30482 -13.0573
LeftLeg  18.0397 0.986049 2.62339
LeftFoot  -16.2561 0.777604 15.7232
LeftToes  8.9788e-011 3.29689e-010 2.1201e-011
1002
root  51.23 37.9427 18.8511 -179.652 -37.0049 -174.834
RightUpLeg  -31.137 17.6866 -8.31147
RightLeg  32.3724 -3.48878 -2.61598
RightFoot  -9.5859 -0.19784 8.63784
RightToes  5.38503e-012 1.26228e-014 -6.01869e-014
Spine  -4.93386 -2.9025 -0.688222
Spine1  8.70929 -4.82879 6.35101
HEad  -0.247527 37.4012 -9.15336
LeftShoulder1  2.04991 -5.00982 -18.3331
LeftArm  30.5787 5.6863 -55.6896
LeftForeArm  20.2696 -16.063 -9.33254
LeftHand  -0.0981523 3.39973 4.87039
RightShoulder  1.30266 0.709749 26.3653
RightArm  59.821 17.0908 55.7979
RightForeArm  25.2877 23.783 3.77871
RightHand  0.483753 -8.63026 -17.908
LeftUpLeg  -1.26018 -5.2293 -12.9966
LeftLeg  18.1749 0.163316 2.22517
LeftFoot  -17.6392 1.02469 16.5623
LeftToes  8.9788e-011 3.29689e-010 2.1201e-011
1003
root  50.4618 37.7084 17.9282 179.969 -38.0873 -174.958
RightUpLeg  -32.2921 14.8162 -5.79306
RightLeg  26.0107 -3.39682 -2.02018
RightFoot  -9.25453 -0.245048 9.96831
RightToes  5.38503e-012 1.26228e-014 -6.01869e-014
Spine  -5.52723 -3.12983 -0.28996
Spine1  9.40155 -4.93833 6.11278
HEad  -0.327187 36.9601 -9.0057
LeftShoulder1  2.1333 -5.54589 -17.7374
LeftArm  37.2182 5.83952 -53.7023
LeftForeArm  13.5022 -20.4266 -5.90271
LeftHand  -0.111413 3.05286 4.8902
RightShoulder  1.32192 0.912196 25.2207
RightArm  61.0957 19.8529 55.8306
RightForeArm  32.456 28.7253 4.44828
RightHand  0.382243 -8.27804 -16.1431
LeftUpLeg  1.51073 -5.45116 -13.4998
LeftLeg  18.0134 0.198357 2.17745
LeftFoot  -19.2479 1.27724 16.6706
LeftToes  8.9788e-011 3.29689e-010 2.1201e-011
1004
root  49.603 37.3937 16.9637 179.362 -38.986 -174.934
RightUpLeg  -32.738 12.9042 -3.00861
RightLeg  19.2949 -4.63597 -2.00664
RightFoot  -9.21985 -0.253964 10.2961
RightToes  5.38503e-012 1.26228e-014 -6.01869e-014
Spine  -6.16047 -3.45771 0.164049
Spine1  9.98071 -5.25133 6.09793
HEad  0.204272 36.921 -8.79012
LeftShoulder1  2.17316 -5.93217 -17.1122
LeftArm  36.7201 5.3966 -50.7907
LeftForeArm  15.1376 -24.548 -4.45721
LeftHand  -0.11675 2.87034 4.82034
RightShoulder  1.30741 1.12781 23.2717
RightArm  60.6984 22.4493 55.8975
RightForeArm  41.4757 35.2697 5.51146
RightHand  0.330682 -8.31905 -14.0341
LeftUpLeg  4.53316 -5.75933 -13.9766
LeftLeg  18.003 0.396698 2.104
LeftFoot  -21.0633 1.56229 16.7436
LeftToes  8.9788e-011 3.29689e-010 2.1201e-011
